<?xml version="1.0" standalone="no"?>
<!DOCTYPE svg PUBLIC "-//W3C//DTD SVG 20010904//EN"
 "http://www.w3.org/TR/2001/REC-SVG-20010904/DTD/svg10.dtd">
<svg version="1.0" xmlns="http://www.w3.org/2000/svg"
 width="949.000000pt" height="263.000000pt" viewBox="0 0 949.000000 263.000000"
 preserveAspectRatio="xMidYMid meet">

<g transform="translate(0.000000,263.000000) scale(0.100000,-0.100000)"
fill="#000000" stroke="none">
<path d="M1129 2560 c-79 -10 -200 -42 -288 -76 -75 -29 -208 -98 -236 -123
-11 -9 -31 -24 -45 -33 -43 -26 -179 -159 -224 -217 -159 -208 -222 -346 -262
-571 -20 -115 -14 -370 11 -463 8 -31 21 -81 29 -110 23 -86 96 -246 123 -268
7 -6 13 -16 13 -21 0 -18 115 -163 177 -224 34 -33 95 -83 135 -110 39 -27
101 -79 137 -115 116 -117 104 -114 471 -114 296 0 321 1 410 23 52 13 109 30
125 37 17 8 61 28 100 45 38 17 91 45 117 61 37 24 55 30 76 24 30 -7 263 -96
327 -125 80 -35 183 -72 192 -69 10 4 -57 205 -151 452 -31 80 -33 116 -8 148
50 64 100 188 138 344 24 97 28 130 28 275 1 139 -3 180 -22 260 -36 150 -81
266 -136 355 -154 246 -279 366 -511 490 -156 83 -325 125 -520 130 -77 2
-170 0 -206 -5z m421 -151 c47 -11 121 -34 165 -52 74 -29 94 -40 167 -89 15
-10 30 -18 33 -18 35 0 305 -271 305 -306 0 -4 6 -15 14 -23 28 -31 97 -177
120 -256 33 -109 46 -204 46 -332 -1 -165 -28 -307 -81 -419 -10 -23 -19 -48
-19 -57 0 -9 -5 -19 -11 -23 -6 -3 -20 -26 -31 -50 -10 -24 -22 -44 -26 -44
-4 0 -13 -12 -19 -28 -10 -22 -10 -37 2 -77 19 -68 43 -138 71 -212 27 -70 29
-83 12 -83 -14 0 -162 52 -268 94 l-64 26 -51 -34 c-142 -98 -344 -173 -490
-183 l-95 -6 27 59 c28 58 28 62 34 314 l5 255 37 70 c20 39 37 76 37 83 0 8
-21 12 -70 12 l-70 0 -21 -45 c-12 -26 -46 -67 -78 -95 -113 -100 -276 -117
-401 -42 -47 29 -102 87 -126 135 l-24 47 -70 0 c-75 0 -80 -4 -56 -48 8 -15
20 -42 26 -59 7 -18 16 -33 20 -33 21 0 30 -76 30 -247 l0 -184 -29 20 c-135
97 -310 352 -347 506 -3 17 -16 57 -27 90 -18 52 -21 85 -21 255 -1 186 1 200
28 290 15 52 34 105 42 117 8 12 14 27 14 34 0 14 97 188 116 209 8 8 34 40
59 71 58 74 182 177 290 241 70 42 207 96 305 120 128 31 349 30 490 -3z
m-302 -1914 l-3 -141 -34 -43 c-19 -24 -49 -50 -68 -57 -42 -18 -239 -18 -269
-1 -47 27 -72 55 -93 101 -18 43 -21 67 -21 202 0 84 3 155 8 157 4 3 42 -7
84 -20 l77 -26 3 -101 3 -101 65 0 65 0 3 101 3 101 62 17 c34 10 73 23 87 31
25 13 25 13 28 -33 2 -26 2 -110 0 -187z"/>
<path d="M512 1467 c-72 -73 -132 -135 -132 -138 0 -4 18 -25 41 -49 l40 -42
57 54 c31 29 70 68 85 86 16 17 34 32 41 32 6 0 49 -38 95 -85 46 -47 86 -85
90 -85 3 0 26 20 50 45 l43 44 -135 136 c-74 74 -136 135 -138 135 -3 0 -64
-60 -137 -133z"/>
<path d="M1250 1465 l-134 -134 46 -47 47 -46 87 86 c48 47 90 86 95 86 4 0
47 -39 94 -86 l87 -87 46 47 47 46 -135 135 c-74 74 -137 135 -140 135 -3 0
-66 -61 -140 -135z"/>
<path d="M2930 2255 c-8 -2 -32 -6 -52 -10 -48 -7 -96 -48 -119 -100 -16 -35
-19 -68 -19 -270 0 -202 3 -235 19 -270 43 -93 108 -115 347 -115 89 0 169 3
178 6 13 5 16 23 16 94 0 60 -4 91 -12 97 -7 4 -78 10 -158 13 l-145 5 -3 164
c-2 107 1 168 8 175 6 6 73 13 158 16 l147 5 3 89 c2 65 -1 92 -10 98 -12 7
-324 10 -358 3z"/>
<path d="M3413 2253 c-14 -5 -19 -231 -7 -290 5 -25 46 -88 109 -168 90 -113
95 -123 95 -204 0 -47 5 -82 12 -89 8 -8 48 -12 115 -12 122 0 123 1 123 110
0 70 1 74 40 120 22 26 40 52 40 58 0 5 7 16 16 23 22 18 94 129 100 154 3 11
3 83 2 160 l-3 140 -99 3 c-64 2 -103 -1 -112 -9 -10 -8 -14 -39 -14 -120 0
-92 -3 -113 -22 -146 -32 -56 -49 -73 -73 -73 -21 0 -55 28 -55 46 0 5 -9 20
-20 34 -17 21 -20 41 -20 136 0 72 -4 114 -12 122 -12 12 -188 16 -215 5z"/>
<path d="M4213 2254 c-10 -4 -13 -90 -13 -379 0 -331 2 -374 16 -379 9 -3 121
-6 249 -6 276 0 321 9 362 71 24 36 24 43 21 168 -3 128 -3 130 -32 160 -17
17 -37 31 -45 31 -9 0 -22 4 -30 9 -11 7 -9 13 7 29 40 40 44 188 5 240 -39
53 -59 57 -303 59 -124 1 -231 0 -237 -3z m355 -186 c17 -17 15 -73 -2 -87 -9
-7 -38 -11 -73 -9 l-58 3 -3 39 c-5 60 0 66 66 66 32 0 63 -5 70 -12z m56
-284 c9 -24 7 -73 -4 -95 -9 -16 -22 -19 -95 -19 -47 0 -85 1 -86 3 0 1 -3 30
-6 65 l-5 62 95 0 c77 0 96 -3 101 -16z"/>
<path d="M4995 2247 c-3 -6 -4 -179 -3 -382 l3 -370 269 -3 c190 -2 273 1 282
9 18 15 20 169 2 187 -8 8 -60 12 -170 12 l-158 0 0 45 0 44 123 3 122 3 3 78
c2 50 -1 84 -9 93 -9 11 -40 14 -125 14 l-114 0 0 40 0 40 164 0 c140 0 165 2
170 16 11 29 6 160 -6 172 -18 18 -547 17 -553 -1z"/>
<path d="M5705 2247 c-3 -6 -4 -179 -3 -382 l3 -370 90 -3 c143 -5 135 -13
135 128 0 119 0 120 25 126 32 8 161 1 172 -10 4 -4 10 -60 13 -124 l5 -117
110 0 110 0 3 155 c3 179 -6 208 -74 244 l-40 21 23 34 c19 28 23 48 23 106 0
117 -36 175 -120 194 -68 16 -469 14 -475 -2z m353 -189 c7 -7 12 -31 12 -53
0 -58 -23 -77 -86 -73 l-49 3 -3 54 c-2 29 -1 60 2 67 7 18 107 19 124 2z"/>
<path d="M6897 2250 c-28 -5 -62 -20 -86 -39 -64 -51 -70 -79 -72 -333 -2
-206 -1 -227 19 -270 23 -54 74 -92 142 -107 48 -11 358 -15 384 -5 13 5 16
23 16 93 0 54 -5 92 -12 99 -8 8 -56 12 -148 12 -92 0 -140 4 -148 12 -8 8
-12 59 -12 163 0 194 -8 185 162 185 70 0 133 3 142 6 13 5 16 23 16 94 0 71
-3 89 -16 94 -22 9 -330 5 -387 -4z"/>
<path d="M7424 2247 c-3 -8 -4 -52 -2 -98 l3 -84 68 -3 67 -3 0 -179 0 -180
-57 0 c-32 0 -64 -4 -71 -8 -9 -6 -12 -34 -10 -103 l3 -94 249 -3 c175 -2 253
1 262 9 10 8 14 36 14 95 0 98 -6 104 -95 104 l-55 0 2 178 3 177 50 3 c98 5
95 2 95 95 0 51 -5 88 -12 95 -18 18 -507 17 -514 -1z"/>
<path d="M8054 2247 c-3 -8 -4 -52 -2 -98 l3 -84 93 -3 92 -3 0 -272 c0 -199
3 -276 12 -285 16 -16 210 -16 226 0 9 9 12 86 12 285 l0 273 84 0 c46 0 91 3
100 6 23 9 23 179 0 188 -9 3 -150 6 -315 6 -241 0 -301 -3 -305 -13z"/>
<path d="M8787 2254 c-4 -4 -7 -76 -7 -159 l0 -152 33 -49 c17 -27 38 -56 45
-64 8 -8 38 -48 68 -89 l54 -75 0 -76 c0 -46 5 -81 12 -88 16 -16 210 -16 226
0 7 7 12 42 12 88 l0 75 55 75 c30 41 60 82 67 90 7 8 28 37 46 65 l32 50 -2
155 -3 155 -99 3 c-64 2 -103 -1 -112 -9 -10 -8 -14 -40 -14 -123 0 -70 -5
-119 -13 -131 -47 -78 -53 -85 -79 -85 -20 0 -34 11 -60 48 -32 46 -33 50 -38
172 l-5 125 -106 3 c-58 1 -108 -1 -112 -4z"/>
<path d="M3626 1034 c-113 -18 -166 -49 -195 -116 -19 -43 -21 -67 -21 -271
l0 -223 28 -54 c21 -43 37 -59 72 -77 66 -32 163 -47 276 -41 169 9 258 55
285 148 6 21 9 128 7 271 l-3 236 -27 35 c-42 55 -83 75 -191 92 -111 18 -112
18 -231 0z m192 -210 c21 -15 22 -21 22 -179 0 -189 0 -189 -97 -189 -88 0
-93 9 -93 189 0 186 4 193 100 194 26 1 55 -6 68 -15z"/>
<path d="M2876 1020 c-52 -16 -95 -54 -116 -102 -18 -42 -20 -68 -20 -273 0
-282 9 -312 110 -358 38 -17 72 -21 222 -25 98 -2 189 -1 203 2 24 6 25 9 25
96 0 60 -4 91 -12 97 -7 4 -78 10 -158 13 l-145 5 -3 164 c-2 107 1 168 8 175
6 6 73 13 158 16 l147 5 0 95 0 95 -195 2 c-107 1 -208 -2 -224 -7z"/>
<path d="M4235 1017 c-3 -6 -4 -179 -3 -382 l3 -370 100 -3 c85 -2 102 0 112
15 9 12 13 70 13 207 1 213 0 212 63 96 l28 -51 57 3 57 3 37 65 c21 36 42 66
48 68 6 2 11 -73 12 -200 l3 -203 110 0 110 0 0 380 0 380 -100 3 c-125 4
-141 -1 -160 -41 -40 -88 -94 -172 -112 -175 -16 -2 -31 16 -71 86 -29 49 -52
94 -52 100 0 23 -42 32 -145 32 -75 0 -107 -4 -110 -13z"/>
<path d="M5136 1005 c-4 -15 -4 -60 0 -100 l7 -74 66 -3 66 -3 3 -177 2 -178
-57 0 c-32 0 -65 -4 -73 -10 -18 -11 -26 -133 -11 -173 l11 -27 248 0 c180 0
251 3 260 12 7 7 12 43 12 89 0 98 -9 109 -91 109 l-59 0 0 180 0 180 64 0
c42 0 67 5 75 14 8 9 11 45 9 98 l-3 83 -261 3 -262 2 -6 -25z"/>
<path d="M5940 1023 c-13 -3 -43 -19 -67 -35 -68 -49 -76 -81 -81 -309 -6
-281 13 -344 118 -393 40 -18 68 -21 233 -24 137 -3 192 -1 202 8 20 16 21
175 3 187 -7 4 -78 10 -158 13 l-145 5 -3 165 c-2 146 -1 166 15 177 11 9 59
13 147 13 72 0 137 4 144 8 9 6 12 33 10 98 l-3 89 -195 1 c-107 1 -206 -1
-220 -3z"/>
<path d="M6595 1023 c-37 -9 -87 -55 -106 -97 -14 -30 -19 -65 -19 -133 0
-167 38 -213 195 -233 50 -6 107 -16 128 -21 34 -9 38 -13 35 -37 l-3 -27
-165 -5 c-91 -3 -171 -9 -177 -13 -19 -12 -18 -171 2 -187 10 -9 72 -11 232
-8 210 4 220 5 262 28 69 39 86 81 86 215 0 182 -34 217 -229 237 -111 12
-132 23 -122 62 l6 25 153 3 152 3 0 95 0 95 -205 1 c-113 1 -214 0 -225 -3z"/>
</g>
</svg>
